<?xml version="1.0" encoding="UTF-8"?>
<svg id="Ebene_21" data-name="Ebene 21" xmlns="http://www.w3.org/2000/svg" viewBox="0 0 700 1080">
  <defs>
    <style>
      .cls-1 {
        fill: #003d5b;
        stroke-width: 0px;
      }
    </style>
  </defs>
  <path class="cls-1" d="M123.26,954.52c-49.44-49.44-49.44-129.89,0-179.34l200.05-221.9c2.06-2.06,2.09-5.4.05-7.49l-201.64-225.26c-49.44-49.44-49.44-129.89,0-179.34,49.44-49.44,129.89-49.44,179.34,0l272.01,309.34c49.75,49.75,49.15,147.16,0,196.3l-270.47,307.68c-50.52,50.52-130.7,48.63-179.34,0ZM135.26,787.18c-42.83,42.83-42.83,112.51,0,155.34,37.79,37.79,107.57,47.76,155.34,0l270.46-307.68c42.83-42.83,42.83-129.48,0-172.31L289.05,153.19c-42.83-42.83-112.51-42.82-155.34,0-42.83,42.83-42.82,112.51,0,155.34l204.77,228.44c6.73,7.01,6.66,18.1-.16,25.02l-203.07,225.19Z"/>
</svg>