<?xml version="1.0" encoding="UTF-8"?>
<svg id="Ebene_12" data-name="Ebene 12" xmlns="http://www.w3.org/2000/svg" viewBox="0 0 1200 1200">
  <defs>
    <style>
      .cls-1 {
        fill: #25e2cc;
      }

      .cls-1, .cls-2, .cls-3 {
        stroke-width: 0px;
      }

      .cls-2 {
        fill: #d3f9f5;
      }

      .cls-3 {
        fill: #7ceee0;
      }
    </style>
  </defs>
  <path class="cls-2" d="M604.85,1127.07c-293.9,0-533-236.44-533-527.07S310.95,72.93,604.85,72.93s533,236.44,533,527.07-239.1,527.07-533,527.07ZM604.85,89.53c-284.75,0-516.41,229-516.41,510.47s231.66,510.47,516.41,510.47,516.41-229,516.41-510.47S889.6,89.53,604.85,89.53Z"/>
  <path class="cls-3" d="M604.85,953.28c-196.93,0-357.15-158.48-357.15-353.28s160.22-353.28,357.15-353.28,357.15,158.48,357.15,353.28-160.22,353.28-357.15,353.28ZM604.85,274.39c-181.68,0-329.5,146.07-329.5,325.61s147.81,325.61,329.5,325.61,329.5-146.07,329.5-325.61-147.81-325.61-329.5-325.61Z"/>
  <path class="cls-1" d="M604.85,761.55c-89.97,0-163.17-72.47-163.17-161.55s73.2-161.55,163.17-161.55,163.17,72.47,163.17,161.55-73.2,161.55-163.17,161.55ZM604.85,477.19c-68.62,0-124.45,55.09-124.45,122.81s55.83,122.81,124.45,122.81,124.45-55.09,124.45-122.81-55.83-122.81-124.45-122.81Z"/>
</svg>