<?xml version="1.0" encoding="UTF-8"?>
<svg id="Ebene_12" data-name="Ebene 12" xmlns="http://www.w3.org/2000/svg" viewBox="0 0 1200 1200">
  <defs>
    <style>
      .cls-1 {
        fill: #25e2cc;
      }

      .cls-1, .cls-2, .cls-3 {
        stroke-width: 0px;
      }

      .cls-2 {
        fill: #d3f9f5;
      }

      .cls-3 {
        fill: #7ceee0;
      }
    </style>
  </defs>
  <path class="cls-2" d="M597.67,107.42c-279.08,0-505.33,223.56-505.33,499.33s226.24,499.33,505.33,499.33,505.33-223.56,505.33-499.33S876.76,107.42,597.67,107.42"/>
  <path class="cls-3" d="M928.32,606.62c0,180.45-148.04,326.73-330.65,326.73s-330.64-146.28-330.64-326.73,148.03-326.73,330.64-326.73,330.65,146.28,330.65,326.73"/>
  <path class="cls-1" d="M736.17,606.62c0,75.58-62.01,136.85-138.5,136.85s-138.5-61.27-138.5-136.85,62.01-136.85,138.5-136.85,138.5,61.27,138.5,136.85"/>
</svg>