<?xml version="1.0" encoding="UTF-8"?>
<svg id="Ebene_45" data-name="Ebene 45" xmlns="http://www.w3.org/2000/svg" viewBox="0 0 1200 1200">
  <defs>
    <style>
      .cls-1 {
        fill: #003d5b;
        stroke-width: 0px;
      }
    </style>
  </defs>
  <g id="Ebene_2" data-name="Ebene 2">
    <g id="Illustration">
      <path class="cls-1" d="M167.49,220.8c108.48-74.84,253.9-59.93,344.52,29.07l84.21,82.57c2.1,2.06,5.46,2.06,7.56,0l84.21-82.57c90.62-89.01,236.04-103.92,344.52-29.07,121.35,83.73,150.52,248.08,65.13,367.12l-284.66,396.72c-46.19,64.33-116.32,102.21-190.21,110.25,0,0-13.45,1.48-22.77,1.48s-22.77-1.48-22.77-1.48c-73.9-8.04-144.06-45.93-190.21-110.25L102.35,587.92c-85.38-119.06-56.22-283.39,65.13-367.12Z"/>
    </g>
  </g>
</svg>