<?xml version="1.0" encoding="UTF-8"?>
<svg id="Ebene_45" data-name="Ebene 45" xmlns="http://www.w3.org/2000/svg" viewBox="0 0 1200 1200">
  <defs>
    <style>
      .cls-1 {
        fill: #003d5b;
        stroke-width: 0px;
      }
    </style>
  </defs>
  <g id="Ebene_2" data-name="Ebene 2">
    <g id="Illustration">
      <path class="cls-1" d="M600,1070.79c-9.7,0-23.19-1.47-23.76-1.53-79.12-8.61-150.76-50.15-196.54-113.95L95.04,558.58c-42.53-59.3-59.1-131.31-46.66-202.77,12.55-72.08,53.03-134.95,113.99-177.01l5.11,7.41-5.11-7.41c53.81-37.13,119.47-54.34,184.87-48.46,64.67,5.81,125.42,33.69,171.07,78.53l77.9,76.38c2.1,2.06,5.46,2.06,7.56,0l77.91-76.39c45.64-44.83,106.39-72.71,171.06-78.52,65.41-5.87,131.07,11.34,184.87,48.46,60.96,42.06,101.45,104.93,114,177.03,12.43,71.45-4.14,143.46-46.66,202.74l-284.66,396.73c-45.82,63.81-117.46,105.35-196.55,113.95-.56.06-14.04,1.53-23.75,1.53ZM322.08,147.21c-53.27,0-105.58,16.12-149.48,46.41-56.95,39.3-94.77,97.99-106.48,165.28-11.6,66.65,3.86,133.84,43.55,189.19l284.66,396.72c42.8,59.66,109.82,98.5,183.88,106.55.14.02,13.09,1.43,21.8,1.43s21.66-1.41,21.79-1.43c74.03-8.06,141.05-46.89,183.89-106.56l284.66-396.72c39.69-55.33,55.15-122.51,43.55-189.16-11.71-67.3-49.53-126-106.49-165.3-50.35-34.74-111.79-50.85-173.04-45.35-60.54,5.43-117.38,31.51-160.06,73.44l-79.5,77.95c-8.22,8.06-21.37,8.06-29.59,0l-79.49-77.94c-42.69-41.93-99.53-68.01-160.07-73.44-7.86-.71-15.73-1.06-23.57-1.06Z"/>
    </g>
  </g>
</svg>