<?xml version="1.0" encoding="UTF-8"?>
<svg id="Ebene_32" data-name="Ebene 32" xmlns="http://www.w3.org/2000/svg" viewBox="0 0 663.62 1080">
  <defs>
    <style>
      .cls-1 {
        fill: #003d5b;
        stroke-width: 0px;
      }
    </style>
  </defs>
  <path class="cls-1" d="M500.91,793.78h-170.22l179.31-295.46s0,0,0,0c0,0,0,0,0,0h0s0,0,0,0c21.93-36.14,33.53-77.67,33.53-120.1,0-127.75-103.94-231.69-231.69-231.69-93.31,0-177.1,55.54-213.45,141.49-15.03,35.53,1.59,76.52,37.13,91.55,35.53,15.03,76.52-1.6,91.55-37.13,14.44-34.14,47.72-56.2,84.78-56.2,50.72,0,91.98,41.26,91.98,91.98,0,16.87-4.58,33.33-13.25,47.61,0,0,0,0,0,0,0,0,0,0,0,0l-243.71,401.57c-13.09,21.57-13.53,48.52-1.16,70.51,12.38,21.99,35.65,35.59,60.88,35.59h294.33c38.58,0,69.86-31.27,69.86-69.86s-31.27-69.86-69.86-69.86Z"/>
</svg>