<?xml version="1.0" encoding="UTF-8"?>
<svg id="Ebene_31" data-name="Ebene 31" xmlns="http://www.w3.org/2000/svg" viewBox="0 0 663.62 1080">
  <defs>
    <style>
      .cls-1 {
        fill: #003d5b;
        stroke-width: 0px;
      }
    </style>
  </defs>
  <path class="cls-1" d="M535.64,378.17c0-127.75-103.94-231.69-231.69-231.69h-106.11c-38.58,0-69.86,31.28-69.86,69.86s31.27,69.86,69.86,69.86h106.11c50.72,0,91.98,41.26,91.98,91.98s-41.26,91.98-91.98,91.98h-69.07c-38.58,0-69.86,31.27-69.86,69.86s31.28,69.86,69.86,69.86h69.07c50.72,0,91.98,41.26,91.98,91.98s-41.26,91.98-91.98,91.98h-106.11c-38.58,0-69.86,31.28-69.86,69.86s31.27,69.86,69.86,69.86h106.11c127.75,0,231.69-103.94,231.69-231.69,0-62.93-25.25-120.04-66.11-161.83,40.86-41.79,66.11-98.91,66.11-161.83Z"/>
</svg>