<?xml version="1.0" encoding="UTF-8"?>
<svg id="Ebene_33" data-name="Ebene 33" xmlns="http://www.w3.org/2000/svg" viewBox="0 0 663.62 1080">
  <defs>
    <style>
      .cls-1 {
        fill: #003d5b;
        stroke-width: 0px;
      }
    </style>
  </defs>
  <path class="cls-1" d="M402.45,933.53c-38.58,0-69.86-31.28-69.86-69.86v-157H123.64c-25.73,0-49.38-14.15-61.55-36.82-12.17-22.67-10.89-50.2,3.33-71.64L344.23,177.73c17.03-25.68,48.87-37.18,78.38-28.28,29.5,8.89,49.7,36.07,49.7,66.88v350.63h67.68c38.58,0,69.86,31.28,69.86,69.86s-31.28,69.86-69.86,69.86h-67.68v157c0,38.58-31.27,69.86-69.86,69.86ZM253.78,566.96h78.81v-118.86l-78.81,118.86Z"/>
</svg>