<?xml version="1.0" encoding="UTF-8"?>
<svg id="Ebene_26" data-name="Ebene 26" xmlns="http://www.w3.org/2000/svg" viewBox="0 0 663.62 1080">
  <defs>
    <style>
      .cls-1 {
        fill: #003d5b;
        stroke-width: 0px;
      }
    </style>
  </defs>
  <path class="cls-1" d="M307.76,383.05c-28.45,0-56.42,4.48-83.03,12.91v-109.78h233.49c38.58,0,69.86-31.27,69.86-69.86s-31.28-69.86-69.86-69.86H154.87c-38.58,0-69.86,31.27-69.86,69.86v297.12c-2.6,21.9,5.14,44.68,22.87,60.46,11.43,10.18,25.29,15.85,39.43,17.26.4.04.8.07,1.2.1,1.66.14,3.33.23,4.99.25.46,0,.9.07,1.36.07.69,0,1.36-.08,2.05-.1.84-.03,1.67-.07,2.51-.13,20.68-1.34,38.87-11.64,50.77-27.11,25.5-26.42,60.73-41.5,97.55-41.5,74.73,0,135.53,60.8,135.53,135.53s-60.8,135.52-135.53,135.52c-40.12,0-77.95-17.64-103.81-48.39-24.83-29.53-68.9-33.35-98.43-8.52-29.53,24.83-33.35,68.89-8.52,98.42,52.47,62.41,129.28,98.2,210.75,98.2,151.77,0,275.24-123.47,275.24-275.24s-123.47-275.24-275.24-275.24Z"/>
</svg>